<?xml version="1.0" encoding="utf-8"?>
<!-- Generator: Adobe Illustrator 23.0.1, SVG Export Plug-In . SVG Version: 6.00 Build 0)  -->
<svg version="1.1" xmlns="http://www.w3.org/2000/svg" xmlns:xlink="http://www.w3.org/1999/xlink" x="0px" y="0px"
	 viewBox="0 0 288 560" style="enable-background:new 0 0 288 560;" xml:space="preserve">
<style type="text/css">
	.st0{fill:#E0BDF4;}
	.st1{opacity:0.5;fill:url(#SVGID_1_);}
	.st2{fill:url(#SVGID_2_);}
	.st3{fill:url(#SVGID_3_);}
	.st4{fill:#6C3596;}
	.st5{fill:#FFF8E6;}
	.st6{fill:#FFE8C0;}
	.st7{fill:url(#SVGID_4_);}
	.st8{fill:#FFE4AE;}
	.st9{fill:url(#SVGID_5_);}
	.st10{fill:url(#SVGID_6_);}
	.st11{fill:url(#SVGID_7_);}
	.st12{fill:url(#SVGID_8_);}
	.st13{fill:url(#SVGID_9_);}
	.st14{fill:#D4145A;}
	.st15{fill:url(#SVGID_10_);}
	.st16{fill:#F9D9AA;}
	.st17{opacity:0.45;fill:url(#SVGID_11_);}
	.st18{opacity:0.45;fill:url(#SVGID_12_);}
	.st19{opacity:0.45;fill:url(#SVGID_13_);}
	.st20{opacity:0.73;fill:#ECCFFF;}
	.st21{opacity:0.45;fill:url(#SVGID_14_);}
	.st22{opacity:0.45;fill:url(#SVGID_15_);}
	.st23{opacity:0.45;fill:url(#SVGID_16_);}
	.st24{opacity:0.45;fill:url(#SVGID_17_);}
	.st25{opacity:0.45;fill:url(#SVGID_18_);}
	.st26{fill:#1C1C7C;}
</style>
<g id="Layer_1">
	<path class="st0" d="M157.23,140.52c0,0,37.27,44.38,4.54,93.51l-3.3,1.59C158.46,235.62,186.1,189.49,157.23,140.52z"/>
	<linearGradient id="SVGID_1_" gradientUnits="userSpaceOnUse" x1="40.8979" y1="166.2152" x2="247.4015" y2="166.2152">
		<stop  offset="0" style="stop-color:#8300C5"/>
		<stop  offset="1" style="stop-color:#377DC9"/>
	</linearGradient>
	<path class="st1" d="M244.26,205.94c-2.02,5.19-4.99,9.87-8.73,13.98v0.02c-0.7,0.79-1.43,1.54-2.18,2.26
		c0,0-24.02-7.14-30.68,16.16c-0.02,0.04-0.02,0.11-0.04,0.15c-23.85,6.24-54.45,4.07-84.84-7.87
		c-20.09-7.89-37.34-18.95-50.55-31.56c2.22-22.99-25.67-38.62-25.67-38.62c-0.24-0.75-0.46-1.47-0.66-2.22c0,0,13.01-19.45,6-41.08
		c19.54-28.05,70.8-35.28,121.49-15.39C224.26,123.72,258.24,170.36,244.26,205.94z"/>
	<linearGradient id="SVGID_2_" gradientUnits="userSpaceOnUse" x1="44.3866" y1="269.5184" x2="236.3577" y2="371.5912">
		<stop  offset="0" style="stop-color:#AA4887"/>
		<stop  offset="0.2383" style="stop-color:#AC4D91"/>
		<stop  offset="0.6436" style="stop-color:#B35CAC"/>
		<stop  offset="0.9985" style="stop-color:#BA6BC9"/>
	</linearGradient>
	<path class="st2" d="M124.77,444.63c0,0-57.08,14.08-72.43-42.86s47.03-70.3,25.75-104.47s-24.05-79.23,2.05-92.22
		s40.77-0.99,48.96,18.86s42.07,17.71,43.06-8.68c0.99-26.39,43.07-25.94,31.69,18.4s-0.99,47.8,14.36,57.21s20.3,43.07-6.93,55.95
		c-27.23,12.87-7.92,37.13-4.95,58.42S182.98,475.14,124.77,444.63z"/>
	<linearGradient id="SVGID_3_" gradientUnits="userSpaceOnUse" x1="69.2524" y1="200.991" x2="135.7812" y2="200.991">
		<stop  offset="0" style="stop-color:#1B1464"/>
		<stop  offset="1" style="stop-color:#0F0F38"/>
		<stop  offset="1" style="stop-color:#000000"/>
	</linearGradient>
	<path class="st3" d="M135.74,237.73c-1.8,4.84-15.45,3.91-15.45,3.91c-0.59,0.07-1.17,0.11-1.71,0.13
		c0.13,0.26,0.68,1.54-0.33,3.87c0,0,0.37-2.33-3.39-3.91c-0.02,0-0.04-0.02-0.04-0.02c-7.39-0.62-12.88-4.07-15.08-5.65
		c-0.4-0.29-0.99-0.02-0.99,0.48c-0.04,6.18-3.74,7.98-6.13,8.51c-0.57,0.11-1.03-0.55-0.64-0.99c2.51-2.92,1.47-7.17,1.1-8.42
		c-0.07-0.24-0.26-0.4-0.51-0.44c-14.99-2.02-17.43-17.78-17.69-25.85c-0.02-0.75-1.08-0.81-1.23-0.11
		c-3.06,12.4,0.29,17.72,0.59,18.18c-6.53-5.1-2.66-21.01-1.91-23.83c0.09-0.26-0.04-0.51-0.29-0.66
		c-7.69-4.97,2.62-26.02,5.8-36.99c2.86-9.85,9.8-9.72,11.36-9.56c0.22,0.02,0.37,0.13,0.48,0.31l46,80.49
		C135.79,237.35,135.81,237.55,135.74,237.73z"/>
	<polygon class="st4" points="92.34,282.14 152.31,138.71 157.23,140.52 95.61,284.67 	"/>
	<path class="st5" d="M130.35,259.87c0,0-2.38,26.84-13.68,33.73c-11.3,6.89-20.34-1.87-20.34-1.87l-5.23,4.22
		c0,0,16.53,19.31,30.86,4.11c14.33-15.2,21.12-31.22,21.12-31.22L130.35,259.87z"/>
	<path class="st6" d="M141.35,393.18c0.06,0.77,0.13,1.56,0.17,2.32c2.89,38.58,2.35,82.56,2.35,82.56
		c-26.16,5.37-32.43,1.44-32.43,1.44c11.29-1.37,23.79-10.56,23.79-10.56c1.86-5.01-5.18-46.47-8.96-72.6
		c-0.09-0.59-0.16-1.13-0.25-1.7c-0.89-6.23-1.71-11.66-2.3-15.58c2.71-0.53,5.48-1,8.2-1.43l7.84-0.93
		C140.38,381.95,140.9,387.48,141.35,393.18z"/>
	<linearGradient id="SVGID_4_" gradientUnits="userSpaceOnUse" x1="109.6365" y1="476.9873" x2="144.56" y2="476.9873">
		<stop  offset="0" style="stop-color:#1B1464"/>
		<stop  offset="1" style="stop-color:#0F0F38"/>
		<stop  offset="1" style="stop-color:#000000"/>
	</linearGradient>
	<path class="st7" d="M128.36,473.08c0,0,3.34,3.24,3.64,6.31l12.56-2.11v2.11c0,0-29.48,3.38-34.92,0
		C109.64,479.39,116.07,474.99,128.36,473.08z"/>
	<path class="st5" d="M149.98,394.57c3.09,39.11,2.51,84.88,2.51,84.88c-26.16,5.37-32.43,1.44-32.43,1.44
		c11.29-1.37,25.2-10.85,25.2-10.85c1.89-5.12-6.82-47.87-10.63-74c-1.14-7.89-2.14-14.49-2.73-18.39l16.19-1.91
		C148.85,381.65,149.46,388.02,149.98,394.57z"/>
	<path class="st8" d="M136.95,410.81c0,0,4.37,1.31,14.06-0.78v-2.19l-14.2,2.02L136.95,410.81z"/>
	<linearGradient id="SVGID_5_" gradientUnits="userSpaceOnUse" x1="79.024" y1="324.4028" x2="184.9651" y2="324.4028">
		<stop  offset="0" style="stop-color:#1B1464"/>
		<stop  offset="1" style="stop-color:#0F0F38"/>
		<stop  offset="1" style="stop-color:#000000"/>
	</linearGradient>
	<path class="st9" d="M145.85,238.77c0,0-13.24,10.77-16.22,18.24c-2.99,7.47-26.73,120.05-50.6,139.58c0,0,38,25.89,105.94,5.78
		C184.97,402.38,169.37,242.66,145.85,238.77z"/>
	<linearGradient id="SVGID_6_" gradientUnits="userSpaceOnUse" x1="88.323" y1="187.4081" x2="171.9035" y2="187.4081">
		<stop  offset="0" style="stop-color:#1B1464"/>
		<stop  offset="1" style="stop-color:#0F0F38"/>
		<stop  offset="1" style="stop-color:#000000"/>
	</linearGradient>
	<path class="st10" d="M89.46,158.41c0,0-4.27-4.11,3.78-12.82s39.6-8.71,44.86-2.46c0,0,18.68,7.47,24.39,19.84
		c0.06,0.14,0.14,0.26,0.25,0.37c1.68,1.74,16.61,18.05,4.43,36.21c-0.19,0.28-0.28,0.61-0.25,0.95c0.28,2.66,1.12,15.33-7.06,21.31
		c-0.55,0.4-0.81,1.1-0.56,1.73c0.49,1.23,1.66,3,4.3,2.84c0,0-2.87,0.84-5.33-0.66c-0.82-0.5-1.86-0.17-2.19,0.72
		c-0.93,2.56-6.43,7.71-13.06,9.62c-0.59,0.17-1.24-0.07-1.6-0.57L89.46,158.41z"/>
	<path class="st5" d="M133.61,229.97c-14.44,6.44-33.21,3.71-42.64-25.23c-6.9-21.23-4.77-42.14,9.67-48.6
		c13.76-6.13,29.17,5.85,38.47,24.62c0.48,0.95,0.92,1.91,1.36,2.88c2.88,6.46,4.7,12.84,5.39,18.73
		C147.3,215.07,143.48,225.55,133.61,229.97z"/>
	<linearGradient id="SVGID_7_" gradientUnits="userSpaceOnUse" x1="131.9945" y1="205.4465" x2="148.9567" y2="205.4465">
		<stop  offset="0" style="stop-color:#1B1464"/>
		<stop  offset="1" style="stop-color:#0F0F38"/>
		<stop  offset="1" style="stop-color:#000000"/>
	</linearGradient>
	<path class="st11" d="M148.96,196.4c0,0-5.49,14.53-16.85,17.8c-0.15,0.04-0.15,0.25,0.01,0.26c2.33,0.13,9.79-0.13,16.84-7.44
		V196.4z"/>
	<path class="st5" d="M147.83,240.85c-3.54,0.2-11.67,8.7-15.08,12.42c-0.29,0.31-0.53,0.57-0.7,0.79
		c-0.04,0.04-0.09,0.07-0.11,0.11c0.02-0.02,0.07-0.04,0.07-0.09c5.34-6.35,4.13-12.55,4.13-12.55c0.44-3.54-5.89-13.3-5.89-13.3
		l8.26-5.65c0,0,4.37,12.18,6.04,14.2c1.19,1.43,2.35,2.9,2.92,3.63C147.7,240.7,147.83,240.85,147.83,240.85z"/>
	<linearGradient id="SVGID_8_" gradientUnits="userSpaceOnUse" x1="80.0723" y1="176.6253" x2="101.1677" y2="176.6253">
		<stop  offset="0" style="stop-color:#1B1464"/>
		<stop  offset="1" style="stop-color:#0F0F38"/>
		<stop  offset="1" style="stop-color:#000000"/>
	</linearGradient>
	<path class="st12" d="M92.75,156.39c1.26,1.34,14.66,16.22,4.86,33.8c-0.23,0.42-0.87,0.2-0.81-0.27c0.49-3.37,0.4-9.88-4.19-19.35
		c-0.09-0.18-0.38-0.12-0.35,0.08c0.59,4.17,2.01,18.58-4.88,26.21c-0.08,0.09-0.24,0.07-0.3-0.04l-6.98-13.35
		c-0.02-0.04-0.03-0.09-0.01-0.13l6.04-22.69c0.01-0.04,0.04-0.08,0.07-0.1l6.34-4.17C92.6,156.32,92.69,156.32,92.75,156.39z"/>
	<linearGradient id="SVGID_9_" gradientUnits="userSpaceOnUse" x1="91.2955" y1="167.5735" x2="143.5307" y2="167.5735">
		<stop  offset="0" style="stop-color:#1B1464"/>
		<stop  offset="1" style="stop-color:#0F0F38"/>
		<stop  offset="1" style="stop-color:#000000"/>
	</linearGradient>
	<path class="st13" d="M96.94,162.2c0,0,5.6,26.97,39.53,22.66c0.48-0.06,0.54-0.74,0.07-0.88c-4.11-1.19-12.93-4.35-15.62-10.22
		c0,0,9.58,7.6,22.6,8.19l-7.75-19.75l-18.34-12.37l-20.5,2.6l-5.65,6.42L96.94,162.2z"/>
	<path class="st5" d="M138.81,259.53l12.84,1.65c0,0-6.82,54.38-39.66,81.19l-3.79-3.81C108.2,338.55,134.21,311.32,138.81,259.53z"
		/>
	<path class="st8" d="M96.95,214.49c0,0,10.58,5.47,13.36-6.53C110.31,207.95,107.33,214.71,96.95,214.49z"/>
	<ellipse class="st8" cx="144.33" cy="260.42" rx="7.32" ry="9.18"/>
	<ellipse class="st5" cx="144.33" cy="261.39" rx="7.32" ry="9.18"/>
	<path class="st8" d="M122.96,206.73c0,0,10.72,6.94,14.01-6.29C136.97,200.44,134.85,209.42,122.96,206.73z"/>
	<path class="st8" d="M119.34,212.92c-0.44-1.1-7.02,2.04-6.06-3.24c0.56-3.11-2.21-14.62-2.21-14.62s1.83,12.98,0.51,16.68
		C110.26,215.44,120.28,215.25,119.34,212.92z"/>
	<path class="st8" d="M144.93,203.86c0.84-6.15-6.77-22.55-6.77-22.55l1.35,0.26c0.48,0.95,0.52,1.11,0.96,2.07
		c2.88,6.46,4.7,12.84,5.39,18.73L144.93,203.86z"/>
	<ellipse transform="matrix(0.9211 -0.3893 0.3893 0.9211 -69.9368 55.7159)" cx="102.52" cy="200.44" rx="2.04" ry="2.55"/>
	<ellipse transform="matrix(0.9211 -0.3893 0.3893 0.9211 -64.5044 64.4321)" cx="126.75" cy="191.39" rx="2.04" ry="2.55"/>
	<path d="M104.04,198.58c0,0-3.95-2.11-5.71,2.12C98.33,200.7,98.47,195.16,104.04,198.58z"/>
	<path d="M122.47,192.34c0,0,0.78-5.03,5.94-2.9C128.41,189.44,122.8,185.56,122.47,192.34z"/>
	<path class="st14" d="M116.07,221.31c0,0,4.28,1.13,9.95-3.65C126.02,217.66,120.72,224.65,116.07,221.31z"/>
	<path class="st8" d="M120.46,223.58c0,0,2.49-0.5,3.65-0.99C124.11,222.58,122.9,223.97,120.46,223.58z"/>
	<path d="M91.6,193.84c0,0,0.77-5.49,9.02-2.81C100.62,191.04,92.7,190.73,91.6,193.84z"/>
	<path d="M113.33,185.82c0,0,5.94-8.77,14.22-6.66C127.54,179.16,118.29,174.12,113.33,185.82z"/>
	<path class="st8" d="M131.78,230.72c0,0,4.53-1.98,7.91-4.94l1.13,2.94c0,0-5.53,4-7.84,4.13L131.78,230.72z"/>
	<path class="st8" d="M138.09,266.19c0,0,0.66-5.01,0.72-6.65C138.81,259.53,137.28,261.98,138.09,266.19z"/>
	<path class="st8" d="M151.03,265.07c0,0,0.31-3.54,0-5.83C151.03,259.23,152.11,262,151.03,265.07z"/>
	<path class="st8" d="M132.01,254.08l0.04-0.02c-0.04,0.04-0.09,0.07-0.11,0.11C131.96,254.15,132.01,254.13,132.01,254.08z"/>
	<path class="st8" d="M147.83,240.85c-3.54,0.2-11.67,8.7-15.08,12.42c1.3-1.45,3.54-4,7.1-8.04c3.89-4.44,6.31-5.03,7.63-4.81
		C147.7,240.7,147.83,240.85,147.83,240.85z"/>
	<linearGradient id="SVGID_10_" gradientUnits="userSpaceOnUse" x1="117.5692" y1="479.1537" x2="152.4927" y2="479.1537">
		<stop  offset="0" style="stop-color:#1B1464"/>
		<stop  offset="1" style="stop-color:#0F0F38"/>
		<stop  offset="1" style="stop-color:#000000"/>
	</linearGradient>
	<path class="st15" d="M136.3,475.25c0,0,3.34,3.24,3.64,6.31l12.56-2.11v2.11c0,0-29.48,3.38-34.92,0
		C117.57,481.56,124,477.16,136.3,475.25z"/>
	<path class="st16" d="M136.95,410.81c0,0-7.04,0.43-8.56-0.2l-0.11-0.74l8.55,0.15L136.95,410.81z"/>
	<path class="st5" d="M97.49,341.7c0,0,7.79,6.66,14.49,0.67l-3.79-3.81c0,0-4.07,1.39-7.94-0.94c-0.33-0.2-0.73-0.22-1.06-0.02
		l-4.34,2.57c-0.34,0.2-0.44,0.66-0.21,0.98l3.03,4.32C97.68,345.45,98,343.59,97.49,341.7z"/>
	<path class="st5" d="M91.1,295.95c0,0-2.21-2.26-3.65-5.26c-0.94-1.95-0.57-7.04,0.1-8.26c0.67-1.22,4.76-2.55,5.9-2.06
		s2.09,2.05,2.09,2.05l1.02,3.5l-0.9,2.56c0,0-0.77-0.45-0.85-1.54c0,0-0.08,3.41,1.52,4.79L91.1,295.95z"/>
	<path class="st4" d="M91.1,285.41c0,0,2.37-1.05,3.77,1.32L90,299.98c0,0-2.71,0.69-3.97-1.55L91.1,285.41z"/>
	<linearGradient id="SVGID_11_" gradientUnits="userSpaceOnUse" x1="40.8869" y1="145.2634" x2="152.3104" y2="145.2634">
		<stop  offset="0" style="stop-color:#8300C5"/>
		<stop  offset="1" style="stop-color:#377DC9"/>
	</linearGradient>
	<path class="st17" d="M152.31,138.71c0,0-63.97-29.15-111.42,19.54l0.66,2.21C41.55,160.47,81.22,114.31,152.31,138.71z"/>
	<linearGradient id="SVGID_12_" gradientUnits="userSpaceOnUse" x1="157.2262" y1="181.3664" x2="235.5423" y2="181.3664">
		<stop  offset="0" style="stop-color:#8300C5"/>
		<stop  offset="1" style="stop-color:#377DC9"/>
	</linearGradient>
	<path class="st18" d="M157.23,140.52c0,0,74.23,26.85,78.32,79.42l-2.19,2.28C233.35,222.22,228.83,169.83,157.23,140.52z"/>
	<linearGradient id="SVGID_13_" gradientUnits="userSpaceOnUse" x1="134.8657" y1="140.5123" x2="152.3104" y2="140.5123">
		<stop  offset="0" style="stop-color:#8300C5"/>
		<stop  offset="1" style="stop-color:#377DC9"/>
	</linearGradient>
	<path class="st19" d="M152.31,138.71c0,0-8.59-1.67-14.22,4.41c0,0-0.12-1.1-3.23-2.09C134.87,141.03,145.01,135.98,152.31,138.71z
		"/>
	<path class="st20" d="M244.26,205.94c-2.02,5.19-4.99,9.87-8.73,13.98c9.67-21.21-9.4-37.98-9.4-37.98
		c-8.35-38.86-45.09-41.44-45.09-41.44c-28.73-35.81-67.19-16.05-67.19-16.05c-21.39-24.38-66.95-7.3-66.95-7.3
		c19.54-28.05,70.8-35.28,121.49-15.39C224.26,123.72,258.24,170.36,244.26,205.94z"/>
	<linearGradient id="SVGID_14_" gradientUnits="userSpaceOnUse" x1="112.2234" y1="110.4588" x2="154.6334" y2="110.4588">
		<stop  offset="0" style="stop-color:#8300C5"/>
		<stop  offset="1" style="stop-color:#377DC9"/>
	</linearGradient>
	<path class="st21" d="M112.22,122.73c0,0,22.64-30.88,42.41-25.69c0,0-21.21-3.68-40.78,27.42L112.22,122.73z"/>
	<linearGradient id="SVGID_15_" gradientUnits="userSpaceOnUse" x1="181.0443" y1="125.9055" x2="189.2197" y2="125.9055">
		<stop  offset="0" style="stop-color:#8300C5"/>
		<stop  offset="1" style="stop-color:#377DC9"/>
	</linearGradient>
	<path class="st22" d="M181.04,140.51c0,0,6.8-17.37,7.18-29.45l0.99,0.58c0,0-0.47,15.16-6.23,29.11L181.04,140.51z"/>
	<linearGradient id="SVGID_16_" gradientUnits="userSpaceOnUse" x1="221.4123" y1="159.9089" x2="229.4168" y2="159.9089">
		<stop  offset="0" style="stop-color:#8300C5"/>
		<stop  offset="1" style="stop-color:#377DC9"/>
	</linearGradient>
	<path class="st23" d="M226.13,181.95c0,0,6.98-28.13-4.72-46.17l2.82,2.93c0,0,8.22,11.24,3.97,45.33L226.13,181.95z"/>
	<linearGradient id="SVGID_17_" gradientUnits="userSpaceOnUse" x1="131.2238" y1="128.9689" x2="152.3104" y2="128.9689">
		<stop  offset="0" style="stop-color:#8300C5"/>
		<stop  offset="1" style="stop-color:#377DC9"/>
	</linearGradient>
	<path class="st24" d="M152.31,138.71c0,0-8.97-16.64-21.09-19.2l2.64-0.28C133.86,119.23,147.31,124.54,152.31,138.71z"/>
	<linearGradient id="SVGID_18_" gradientUnits="userSpaceOnUse" x1="157.2262" y1="135.1743" x2="172.2768" y2="135.1743">
		<stop  offset="0" style="stop-color:#8300C5"/>
		<stop  offset="1" style="stop-color:#377DC9"/>
	</linearGradient>
	<path class="st25" d="M157.23,140.52c0,0,3.4-6.68,13.06-10.69l1.99,1.61C172.28,131.44,166.87,131.83,157.23,140.52z"/>
	<g>
		<path d="M142,184.8l-0.76-0.56l-4.66,6.28c-2-3.35-5.66-5.58-9.84-5.58c-6.32,0-11.47,5.14-11.47,11.47c0,1.28,0.21,2.51,0.6,3.66
			c-2.52-0.39-4.02,0.37-4.76,0.96c-1.31-4.57-5.52-7.92-10.5-7.92c-6.02,0-10.93,4.9-10.93,10.93c0,6.02,4.9,10.92,10.93,10.92
			s10.92-4.9,10.92-10.92c0-0.67-0.06-1.32-0.18-1.95c0.29-0.33,1.68-1.68,4.93-0.98c1.8,3.98,5.81,6.76,10.45,6.76
			c6.33,0,11.47-5.14,11.47-11.47c0-1.78-0.41-3.47-1.13-4.97L142,184.8z M100.62,214.01c-5.5,0-9.98-4.48-9.98-9.97
			c0-5.5,4.48-9.98,9.98-9.98c5.5,0,9.97,4.48,9.97,9.98C110.6,209.54,106.12,214.01,100.62,214.01z M137.27,196.41
			c0,5.8-4.72,10.52-10.52,10.52s-10.52-4.72-10.52-10.52c0-5.81,4.72-10.52,10.52-10.52S137.27,190.6,137.27,196.41z"/>
	</g>
</g>
<g id="Layer_15">
</g>
<g id="Layer_13">
</g>
<g id="Layer_12">
</g>
<g id="Layer_14">
</g>
<g id="Layer_10">
</g>
<g id="Layer_11">
</g>
<g id="Layer_8">
</g>
<g id="Layer_7">
</g>
<g id="Layer_6">
</g>
<g id="Layer_3">
</g>
<g id="Layer_4">
</g>
<g id="Layer_5">
</g>
<g id="Layer_2">
</g>
<g id="Layer_9">
</g>
</svg>
